# xmcd
#
# Track frame offsets:
#	150
#	13028
#	29040
#	45822
#	63215
#	80043
#	93791
#	110583
#	127942
#	143116
#	158713
#	172201
#	190045
#	207330
#	223366
#	235124
#	253041
#	268083
#	284713
#	301055
#	313763
#
# Disc length: 4365 seconds
# Revision: 0
# Processed by: cddbd v1.5.2PL0 Copyright (c) Steve Scherf et al.
# Submitted via: dBpowerAMP V12.0
#
DISCID=31110b15
DTITLE=Various Artist - Country Radio March 2008
DYEAR=2008
DGENRE=Country
TTITLE0=Taylor Swift - Picture To Burn
TTITLE1=Crystal Shawanda - You Can Let Go
TTITLE2=Trace Atkins - You're Gonna Miss This
TTITLE3=Deric Ruttan - First Time In A Long Time
TTITLE4=Josh Turner Feat Trisha Yearwood - Another Try
TTITLE5=Codie Prevost - Spin
TTITLE6=Dierks Bentley - Trying To Stop Your Leaving
TTITLE7=Brad Johner - What A Girl Wants
TTITLE8=Joe Nichols - It Ain't No Crime
TTITLE9=Keith Anderson - I Still Miss You
TTITLE10=Mark Lorenz - The Way She Walks Away
TTITLE11=Duanne Steele - Two People In a Room
TTITLE12=Johnny Reid - Thank You
TTITLE13=Leann Rimes - Good Friends and A Glass Of Wine
TTITLE14=Tracy Millar - Spread A Little Love Around
TTITLE15=Kevin Fowler - Best Mistake I Ever Made
TTITLE16=Jason Michael Carroll - I Can Sleep When I'm Dead
TTITLE17=Ridley Bent - Heartland Heartbreak
TTITLE18=Trent Willmon - Broken In
TTITLE19=Anne Murray With Nelly Furtando - Daydream Believer
TTITLE20=Craig Moritz - Good At Lovin You
EXTD=
EXTT0=
EXTT1=
EXTT2=
EXTT3=
EXTT4=
EXTT5=
EXTT6=
EXTT7=
EXTT8=
EXTT9=
EXTT10=
EXTT11=
EXTT12=
EXTT13=
EXTT14=
EXTT15=
EXTT16=
EXTT17=
EXTT18=
EXTT19=
EXTT20=
PLAYORDER=
